<svg version="1.1" viewBox="0.0 0.0 192.0 192.0" fill="none" stroke="none" stroke-linecap="square" stroke-miterlimit="10" xmlns:xlink="http://www.w3.org/1999/xlink" xmlns="http://www.w3.org/2000/svg"><clipPath id="p.0"><path d="m0 0l192.0 0l0 192.0l-192.0 0l0 -192.0z" clip-rule="nonzero"/></clipPath><g clip-path="url(#p.0)"><path fill="#000000" fill-opacity="0.0" d="m0 0l192.0 0l0 192.0l-192.0 0z" fill-rule="evenodd"/><path fill="#000000" fill-opacity="0.0" d="m18.557034 107.60196l102.078735 -81.104805l52.315765 0l-65.713486 81.104805z" fill-rule="evenodd"/><path stroke="#741b47" stroke-width="24.0" stroke-linejoin="round" stroke-linecap="butt" d="m18.557034 107.60196l102.078735 -81.104805l52.315765 0l-65.713486 81.104805z" fill-rule="evenodd"/><path fill="#000000" fill-opacity="0.0" d="m18.672354 108.85867l-0.018810272 49.602814l88.69037 0l0.10480499 -51.71608" fill-rule="evenodd"/><path stroke="#741b47" stroke-width="24.0" stroke-linejoin="round" stroke-linecap="butt" d="m18.672354 108.85867l-0.018810272 49.602814l88.69037 0l0.10480499 -51.71608" fill-rule="evenodd"/><path fill="#000000" fill-opacity="0.0" d="m172.97673 27.832022l-0.5468445 51.204376l-66.364265 80.54879" fill-rule="evenodd"/><path stroke="#741b47" stroke-width="24.0" stroke-linejoin="round" stroke-linecap="butt" d="m172.97673 27.832022l-0.5468445 51.204376l-66.364265 80.54879" fill-rule="evenodd"/></g></svg>